# xmcd
#
# Track frame offsets:
#	150
#	14542
#	25670
#	42254
#	59092
#	83765
#	101196
#	119572
#	136670
#
# Disc length: 2080 seconds
#
# Revision: 1
# Processed by: cddbd v1.5.2PL0 Copyright (c) Steve Scherf et al.
# Submitted via: audiograbber 1.83.01
#
DISCID=76081e09
DTITLE=The Sideshow Tragedy - Capital
DYEAR=201
DGENRE=Blues
TTITLE0=Number One
TTITLE1=Blacked Out Windows
TTITLE2=Keys To The Kingdom
TTITLE3=The Winning Side
TTITLE4=Capital
TTITLE5=Two Guns
TTITLE6=Animal Song
TTITLE7=Let The Love Go Down
TTITLE8=Plow Song
EXTD=
EXTT0=
EXTT1=
EXTT2=
EXTT3=
EXTT4=
EXTT5=
EXTT6=
EXTT7=
EXTT8=
PLAYORDER=
